<mxfile host="app.diagrams.net" agent="Mozilla/5.0 (Windows NT 10.0; Win64; x64) AppleWebKit/537.36 (KHTML, like Gecko) Chrome/131.0.0.0 Safari/537.36 Edg/131.0.0.0" version="25.0.3">
  <diagram name="Page-1" id="QfCrMuJkMNhtSx7M4hBv">
    <mxGraphModel dx="1499" dy="1971" grid="1" gridSize="10" guides="1" tooltips="1" connect="1" arrows="1" fold="1" page="1" pageScale="1" pageWidth="850" pageHeight="1100" math="0" shadow="0">
      <root>
        <mxCell id="0" />
        <mxCell id="1" parent="0" />
        <mxCell id="8lRUZTI_6fAo6i5T4Kmb-1" value="gc_hal_kernel_command.c" style="swimlane;fontStyle=1;align=center;verticalAlign=top;childLayout=stackLayout;horizontal=1;startSize=26;horizontalStack=0;resizeParent=1;resizeParentMax=0;resizeLast=0;collapsible=1;marginBottom=0;whiteSpace=wrap;html=1;" vertex="1" parent="1">
          <mxGeometry x="10" width="570" height="400" as="geometry" />
        </mxCell>
        <mxCell id="8lRUZTI_6fAo6i5T4Kmb-2" value="gc_hal_kernel_command.c" style="text;strokeColor=none;fillColor=none;align=left;verticalAlign=top;spacingLeft=4;spacingRight=4;overflow=hidden;rotatable=0;points=[[0,0.5],[1,0.5]];portConstraint=eastwest;whiteSpace=wrap;html=1;" vertex="1" parent="8lRUZTI_6fAo6i5T4Kmb-1">
          <mxGeometry y="26" width="570" height="26" as="geometry" />
        </mxCell>
        <mxCell id="8lRUZTI_6fAo6i5T4Kmb-3" value="" style="line;strokeWidth=1;fillColor=none;align=left;verticalAlign=middle;spacingTop=-1;spacingLeft=3;spacingRight=3;rotatable=0;labelPosition=right;points=[];portConstraint=eastwest;strokeColor=inherit;" vertex="1" parent="8lRUZTI_6fAo6i5T4Kmb-1">
          <mxGeometry y="52" width="570" height="8" as="geometry" />
        </mxCell>
        <mxCell id="8lRUZTI_6fAo6i5T4Kmb-4" value="&lt;div&gt;&lt;span style=&quot;background-color: rgb(255, 255, 204);&quot;&gt;//获取mmu的计数, 并清除&lt;/span&gt;&lt;/div&gt;&lt;b&gt;gckOS_AtomicExchange&lt;/b&gt;(os, &lt;b&gt;hw-&amp;gt;pageTableDirty[gcvENGIN_RENDER]&lt;/b&gt;, 0, &amp;amp;&lt;b&gt;oldValue&lt;/b&gt;)" style="text;strokeColor=none;fillColor=none;align=left;verticalAlign=top;spacingLeft=4;spacingRight=4;overflow=hidden;rotatable=0;points=[[0,0.5],[1,0.5]];portConstraint=eastwest;whiteSpace=wrap;html=1;" vertex="1" parent="8lRUZTI_6fAo6i5T4Kmb-1">
          <mxGeometry y="60" width="570" height="40" as="geometry" />
        </mxCell>
        <mxCell id="8lRUZTI_6fAo6i5T4Kmb-5" value="&lt;div&gt;&lt;span style=&quot;background-color: rgb(255, 255, 204);&quot;&gt;//如果计数不为0, 说明页表dirty&lt;/span&gt;&lt;/div&gt;if (oldValue) {" style="text;strokeColor=none;fillColor=none;align=left;verticalAlign=top;spacingLeft=4;spacingRight=4;overflow=hidden;rotatable=0;points=[[0,0.5],[1,0.5]];portConstraint=eastwest;whiteSpace=wrap;html=1;" vertex="1" parent="8lRUZTI_6fAo6i5T4Kmb-1">
          <mxGeometry y="100" width="570" height="40" as="geometry" />
        </mxCell>
        <mxCell id="8lRUZTI_6fAo6i5T4Kmb-8" value="&lt;b&gt;&amp;nbsp; &amp;nbsp; &lt;/b&gt;&lt;span style=&quot;background-color: rgb(230, 230, 230);&quot;&gt;//获取之后command queue需要reserved的大小 //80 bytes&lt;/span&gt;&lt;div&gt;&lt;b&gt;&amp;nbsp; &amp;nbsp; gckHARDWARE_FlushMMU&lt;/b&gt;(hw, NULL, gcvINVALID_ADDRESS, 0, &amp;amp;flushBytes)&lt;/div&gt;" style="text;strokeColor=none;fillColor=none;align=left;verticalAlign=top;spacingLeft=4;spacingRight=4;overflow=hidden;rotatable=0;points=[[0,0.5],[1,0.5]];portConstraint=eastwest;whiteSpace=wrap;html=1;" vertex="1" parent="8lRUZTI_6fAo6i5T4Kmb-1">
          <mxGeometry y="140" width="570" height="40" as="geometry" />
        </mxCell>
        <mxCell id="8lRUZTI_6fAo6i5T4Kmb-6" value="&amp;nbsp; &amp;nbsp;&amp;nbsp;&lt;div&gt;&lt;b&gt;&amp;nbsp; &amp;nbsp; &lt;/b&gt;&lt;span style=&quot;background-color: rgb(230, 230, 230);&quot;&gt;//pointer 指向command queue + command queue offset的地址&lt;/span&gt;&lt;/div&gt;&lt;div&gt;&lt;b&gt;&amp;nbsp; &amp;nbsp; gckCOMMAND_Reserve&lt;/b&gt;(Command, flushBytes, &amp;amp;pointer, &amp;amp;bufferSize)&lt;br&gt;&amp;nbsp; &amp;nbsp;&amp;nbsp;&lt;span style=&quot;background-color: initial;&quot;&gt;address = Command-&amp;gt;address + Command-&amp;gt;offset&amp;nbsp; &amp;nbsp; &amp;nbsp; &amp;nbsp; &amp;nbsp; &amp;nbsp; &amp;nbsp; &amp;nbsp; &amp;nbsp; &amp;nbsp; &amp;nbsp; &amp;nbsp; &amp;nbsp; &amp;nbsp; &amp;nbsp; &amp;nbsp; &amp;nbsp; &amp;nbsp; &amp;nbsp; //address 也和pointer 一致&lt;/span&gt;&lt;/div&gt;" style="text;strokeColor=none;fillColor=none;align=left;verticalAlign=top;spacingLeft=4;spacingRight=4;overflow=hidden;rotatable=0;points=[[0,0.5],[1,0.5]];portConstraint=eastwest;whiteSpace=wrap;html=1;" vertex="1" parent="8lRUZTI_6fAo6i5T4Kmb-1">
          <mxGeometry y="180" width="570" height="70" as="geometry" />
        </mxCell>
        <mxCell id="8lRUZTI_6fAo6i5T4Kmb-11" value="&lt;span style=&quot;background-color: rgb(255, 153, 153);&quot;&gt;&amp;nbsp; &amp;nbsp; &lt;b&gt;gckHARDWARE_FlushMMU&lt;/b&gt;(hw, pointer, address, (bufferSize - flushBytes), &amp;amp;flushBytes)&lt;/span&gt;" style="text;strokeColor=none;fillColor=none;align=left;verticalAlign=top;spacingLeft=4;spacingRight=4;overflow=hidden;rotatable=0;points=[[0,0.5],[1,0.5]];portConstraint=eastwest;whiteSpace=wrap;html=1;" vertex="1" parent="8lRUZTI_6fAo6i5T4Kmb-1">
          <mxGeometry y="250" width="570" height="30" as="geometry" />
        </mxCell>
        <mxCell id="8lRUZTI_6fAo6i5T4Kmb-12" value="+ method(type): type" style="text;strokeColor=none;fillColor=none;align=left;verticalAlign=top;spacingLeft=4;spacingRight=4;overflow=hidden;rotatable=0;points=[[0,0.5],[1,0.5]];portConstraint=eastwest;whiteSpace=wrap;html=1;" vertex="1" parent="8lRUZTI_6fAo6i5T4Kmb-1">
          <mxGeometry y="280" width="570" height="30" as="geometry" />
        </mxCell>
        <mxCell id="8lRUZTI_6fAo6i5T4Kmb-13" value="+ method(type): type" style="text;strokeColor=none;fillColor=none;align=left;verticalAlign=top;spacingLeft=4;spacingRight=4;overflow=hidden;rotatable=0;points=[[0,0.5],[1,0.5]];portConstraint=eastwest;whiteSpace=wrap;html=1;" vertex="1" parent="8lRUZTI_6fAo6i5T4Kmb-1">
          <mxGeometry y="310" width="570" height="30" as="geometry" />
        </mxCell>
        <mxCell id="8lRUZTI_6fAo6i5T4Kmb-7" value="}" style="text;strokeColor=none;fillColor=none;align=left;verticalAlign=top;spacingLeft=4;spacingRight=4;overflow=hidden;rotatable=0;points=[[0,0.5],[1,0.5]];portConstraint=eastwest;whiteSpace=wrap;html=1;" vertex="1" parent="8lRUZTI_6fAo6i5T4Kmb-1">
          <mxGeometry y="340" width="570" height="30" as="geometry" />
        </mxCell>
        <mxCell id="8lRUZTI_6fAo6i5T4Kmb-9" value="+ method(type): type" style="text;strokeColor=none;fillColor=none;align=left;verticalAlign=top;spacingLeft=4;spacingRight=4;overflow=hidden;rotatable=0;points=[[0,0.5],[1,0.5]];portConstraint=eastwest;whiteSpace=wrap;html=1;" vertex="1" parent="8lRUZTI_6fAo6i5T4Kmb-1">
          <mxGeometry y="370" width="570" height="30" as="geometry" />
        </mxCell>
        <mxCell id="8lRUZTI_6fAo6i5T4Kmb-14" value="gc_hal_kernel_hardware.c" style="swimlane;fontStyle=1;align=center;verticalAlign=top;childLayout=stackLayout;horizontal=1;startSize=26;horizontalStack=0;resizeParent=1;resizeParentMax=0;resizeLast=0;collapsible=1;marginBottom=0;whiteSpace=wrap;html=1;" vertex="1" parent="1">
          <mxGeometry x="700" y="160" width="760" height="820" as="geometry" />
        </mxCell>
        <mxCell id="8lRUZTI_6fAo6i5T4Kmb-15" value="&lt;span style=&quot;font-weight: 700; text-align: center;&quot;&gt;gckHARDWARE_FlushMMU(hw, Logical, Address, SubsequentBytes, *Bytes)&lt;/span&gt;" style="text;strokeColor=#666666;fillColor=#f5f5f5;align=left;verticalAlign=top;spacingLeft=4;spacingRight=4;overflow=hidden;rotatable=0;points=[[0,0.5],[1,0.5]];portConstraint=eastwest;whiteSpace=wrap;html=1;fontColor=#333333;" vertex="1" parent="8lRUZTI_6fAo6i5T4Kmb-14">
          <mxGeometry y="26" width="760" height="26" as="geometry" />
        </mxCell>
        <mxCell id="8lRUZTI_6fAo6i5T4Kmb-16" value="" style="line;strokeWidth=1;fillColor=none;align=left;verticalAlign=middle;spacingTop=-1;spacingLeft=3;spacingRight=3;rotatable=0;labelPosition=right;points=[];portConstraint=eastwest;strokeColor=inherit;" vertex="1" parent="8lRUZTI_6fAo6i5T4Kmb-14">
          <mxGeometry y="52" width="760" height="8" as="geometry" />
        </mxCell>
        <mxCell id="8lRUZTI_6fAo6i5T4Kmb-17" value="flushSize = 10* 4&lt;div&gt;if (bltEngine) { &lt;br&gt;&amp;nbsp; &amp;nbsp; flushSize += 4*4&lt;/div&gt;&lt;div&gt;&amp;nbsp; &amp;nbsp; if(multiCluster)&lt;/div&gt;&lt;div&gt;&amp;nbsp; &amp;nbsp; &amp;nbsp; &amp;nbsp; flushSize += 2*4&lt;/div&gt;&lt;div&gt;}&lt;/div&gt;&lt;div&gt;if (&lt;b&gt;hw-&amp;gt;graphicsLargeVA&lt;/b&gt;)&lt;/div&gt;&lt;div&gt;&amp;nbsp; &amp;nbsp; flushSize += 4*4&amp;nbsp; &amp;nbsp; &amp;nbsp; &amp;nbsp; &amp;nbsp; &amp;nbsp; &amp;nbsp; &amp;nbsp; &amp;nbsp; &amp;nbsp; &amp;nbsp; &amp;nbsp; &amp;nbsp; &amp;nbsp; &amp;nbsp; &amp;nbsp; &amp;nbsp; &amp;nbsp; &amp;nbsp; &amp;nbsp; &amp;nbsp; &amp;nbsp; &amp;nbsp; //80&lt;/div&gt;&lt;div&gt;&lt;br&gt;&lt;/div&gt;" style="text;strokeColor=none;fillColor=none;align=left;verticalAlign=top;spacingLeft=4;spacingRight=4;overflow=hidden;rotatable=0;points=[[0,0.5],[1,0.5]];portConstraint=eastwest;whiteSpace=wrap;html=1;" vertex="1" parent="8lRUZTI_6fAo6i5T4Kmb-14">
          <mxGeometry y="60" width="760" height="130" as="geometry" />
        </mxCell>
        <mxCell id="8lRUZTI_6fAo6i5T4Kmb-18" value="if (Logical) {&amp;nbsp; &amp;nbsp; &amp;nbsp; &amp;nbsp; &amp;nbsp; &amp;nbsp; &amp;nbsp; &amp;nbsp; &amp;nbsp; &amp;nbsp; &amp;nbsp; &amp;nbsp; &amp;nbsp; &amp;nbsp; &amp;nbsp; &amp;nbsp; &amp;nbsp; &amp;nbsp; &amp;nbsp; &amp;nbsp; &amp;nbsp; &amp;nbsp; &amp;nbsp; &amp;nbsp; &amp;nbsp; &amp;nbsp; &amp;nbsp; &amp;nbsp; &amp;nbsp; //Logic 指向reserved区域&lt;div&gt;&lt;br&gt;&lt;/div&gt;&lt;div&gt;&lt;br&gt;&lt;/div&gt;" style="text;strokeColor=#666666;fillColor=#f5f5f5;align=left;verticalAlign=top;spacingLeft=4;spacingRight=4;overflow=hidden;rotatable=0;points=[[0,0.5],[1,0.5]];portConstraint=eastwest;whiteSpace=wrap;html=1;fontColor=#333333;" vertex="1" parent="8lRUZTI_6fAo6i5T4Kmb-14">
          <mxGeometry y="190" width="760" height="30" as="geometry" />
        </mxCell>
        <mxCell id="8lRUZTI_6fAo6i5T4Kmb-48" value="offset = 2&lt;br&gt;prefetchCount = 4&lt;div&gt;if (bltEngine) {&lt;br&gt;&amp;nbsp; &amp;nbsp; prefetchCount += 2&lt;/div&gt;&lt;div&gt;&amp;nbsp; &amp;nbsp; if (multiCluster) {&lt;/div&gt;&lt;div&gt;&amp;nbsp; &amp;nbsp; &amp;nbsp; &amp;nbsp; prefetchCount++;&amp;nbsp; &amp;nbsp; &amp;nbsp; &amp;nbsp; &amp;nbsp; &amp;nbsp; &amp;nbsp; &amp;nbsp; &amp;nbsp; &amp;nbsp; &amp;nbsp; &amp;nbsp; &amp;nbsp; &amp;nbsp; &amp;nbsp; &amp;nbsp; &amp;nbsp; &amp;nbsp; &amp;nbsp; &amp;nbsp; &amp;nbsp; &amp;nbsp; &amp;nbsp; &amp;nbsp; &amp;nbsp; &amp;nbsp; &amp;nbsp; &amp;nbsp; &amp;nbsp; &amp;nbsp;// 7&lt;/div&gt;&lt;div&gt;&amp;nbsp; &amp;nbsp; }&lt;/div&gt;&lt;div&gt;}&lt;/div&gt;&lt;div&gt;count = SubsequentBytes &amp;gt;&amp;gt; 3&amp;nbsp; &amp;nbsp; &amp;nbsp; &amp;nbsp; &amp;nbsp; &amp;nbsp; &amp;nbsp; &amp;nbsp; &amp;nbsp; &amp;nbsp; &amp;nbsp; &amp;nbsp; &amp;nbsp; &amp;nbsp; &amp;nbsp; &amp;nbsp; &amp;nbsp; &amp;nbsp; &amp;nbsp; &amp;nbsp; &amp;nbsp; &amp;nbsp; &amp;nbsp;// 498 = 3984 &amp;gt;&amp;gt; 3&lt;/div&gt;&lt;div&gt;if (hw-&amp;gt;graphicsLargeVA) {&lt;/div&gt;&lt;div&gt;&amp;nbsp; &amp;nbsp; opLogical = Logical&amp;nbsp; &amp;nbsp; &amp;nbsp; &amp;nbsp; &amp;nbsp; &amp;nbsp; &amp;nbsp; &amp;nbsp; &amp;nbsp; &amp;nbsp; &amp;nbsp; &amp;nbsp; &amp;nbsp; &amp;nbsp; &amp;nbsp; &amp;nbsp; &amp;nbsp; &amp;nbsp; &amp;nbsp; &amp;nbsp; &amp;nbsp; &amp;nbsp; &amp;nbsp; &amp;nbsp; &amp;nbsp; &amp;nbsp; &amp;nbsp; &amp;nbsp; &amp;nbsp; &amp;nbsp;//&amp;nbsp;&lt;span style=&quot;background-color: initial;&quot;&gt;5639 4A98 7820&lt;/span&gt;&lt;/div&gt;&lt;div&gt;&amp;nbsp; &amp;nbsp; offset = 4&lt;/div&gt;&lt;div&gt;&lt;br&gt;&lt;/div&gt;&lt;div&gt;&amp;nbsp; &amp;nbsp; opLogical ++ = LINK64 with Prefetch&amp;nbsp; &amp;nbsp; &amp;nbsp; &amp;nbsp; &amp;nbsp; &amp;nbsp; &amp;nbsp; &amp;nbsp; &amp;nbsp; &amp;nbsp; &amp;nbsp; &amp;nbsp; &amp;nbsp; &amp;nbsp; &amp;nbsp; &amp;nbsp;// 建立LINK&lt;br&gt;&amp;nbsp; &amp;nbsp; opLogical ++ = address + offset * sizeof(uint32_t)&amp;nbsp; &amp;nbsp; &amp;nbsp; &amp;nbsp; &amp;nbsp; &amp;nbsp;// 设置LINK的地址 address + 16 下一个槽位&lt;/div&gt;&lt;div&gt;&amp;nbsp; &amp;nbsp; buffer = opLogical&amp;nbsp; &amp;nbsp; &amp;nbsp; &amp;nbsp; &amp;nbsp; &amp;nbsp; &amp;nbsp; &amp;nbsp; &amp;nbsp; &amp;nbsp; &amp;nbsp; &amp;nbsp; &amp;nbsp; &amp;nbsp; &amp;nbsp; &amp;nbsp; &amp;nbsp; &amp;nbsp; &amp;nbsp; &amp;nbsp; &amp;nbsp; &amp;nbsp; &amp;nbsp; &amp;nbsp; &amp;nbsp; &amp;nbsp; &amp;nbsp; &amp;nbsp; &amp;nbsp; &amp;nbsp; &amp;nbsp;// buffer 是32位指针 接着设置&amp;nbsp;&lt;span style=&quot;background-color: initial;&quot;&gt;5639 4A98 7830&lt;/span&gt;&lt;/div&gt;&lt;div&gt;}&lt;/div&gt;" style="text;strokeColor=default;fillColor=none;align=left;verticalAlign=top;spacingLeft=4;spacingRight=4;overflow=hidden;rotatable=0;points=[[0,0.5],[1,0.5]];portConstraint=eastwest;whiteSpace=wrap;html=1;dashed=1;" vertex="1" parent="8lRUZTI_6fAo6i5T4Kmb-14">
          <mxGeometry y="220" width="760" height="260" as="geometry" />
        </mxCell>
        <mxCell id="8lRUZTI_6fAo6i5T4Kmb-49" value="&lt;div&gt;&lt;b&gt;&lt;font style=&quot;font-size: 16px; background-color: rgb(255, 255, 204);&quot;&gt;//Flush VMID&lt;/font&gt;&lt;/b&gt;&lt;span style=&quot;background-color: rgb(255, 153, 153);&quot;&gt;&lt;b&gt;&lt;/b&gt;&lt;/span&gt;&lt;/div&gt;&lt;span style=&quot;background-color: rgb(255, 153, 153);&quot;&gt;&lt;b&gt;gckKERNEL_GetCurrentMMU&lt;/b&gt;(hw-&amp;gt;kernel, true, 0, &amp;amp;mmu)&amp;nbsp; &amp;nbsp; //通过processID 和 processPageTable 获取kernel mmu或process mmu&lt;/span&gt;&lt;div&gt;&lt;br&gt;&lt;/div&gt;&lt;div&gt;buffer++ = LOAD_STATE gcregMMUPTFlushRegAddrs&amp;nbsp; &amp;nbsp; &amp;nbsp;//创建 LoadState 设置 gcregMMUPTFlushRegAddrs&lt;br&gt;buffer++ = 设置 GCREG_MMUPT_FLUSH 的 FLUSH_CMD=0, FLUSH_VMID = mmu-&amp;gt;vmid&lt;/div&gt;&lt;div&gt;&lt;br&gt;&lt;/div&gt;" style="text;strokeColor=default;fillColor=none;align=left;verticalAlign=top;spacingLeft=4;spacingRight=4;overflow=hidden;rotatable=0;points=[[0,0.5],[1,0.5]];portConstraint=eastwest;whiteSpace=wrap;html=1;dashed=1;" vertex="1" parent="8lRUZTI_6fAo6i5T4Kmb-14">
          <mxGeometry y="480" width="760" height="90" as="geometry" />
        </mxCell>
        <mxCell id="8lRUZTI_6fAo6i5T4Kmb-50" value="if (bltEngine) {&lt;div&gt;&amp;nbsp; &amp;nbsp; buffer++ = LOAD_STATE gcregBltGeneralControlRegAddrs&lt;/div&gt;&lt;div&gt;&amp;nbsp; &amp;nbsp; buffer++ = 设置 GCREG_BLT_GENERAL_CONTROL的 STREAM_CONTROL = LOCK&lt;/div&gt;&lt;div&gt;&amp;nbsp; &amp;nbsp; if (multiCluster) {&lt;/div&gt;&lt;div&gt;&amp;nbsp; &amp;nbsp; &amp;nbsp; &amp;nbsp; buffer++ = LOAD_STATE gcregBltClusterControlRegAddrs&lt;br&gt;&amp;nbsp; &amp;nbsp; &amp;nbsp; &amp;nbsp; buffer++ = 设置GCREG_BLT_CLUSTER_CONTROL 的 CLUSTER_ENABLE = clusterAvailMask &amp;amp; userClusterMask //根据mask enable&lt;/div&gt;&lt;div&gt;&amp;nbsp; &amp;nbsp; }&lt;/div&gt;&lt;div&gt;}&lt;/div&gt;" style="text;strokeColor=none;fillColor=none;align=left;verticalAlign=top;spacingLeft=4;spacingRight=4;overflow=hidden;rotatable=0;points=[[0,0.5],[1,0.5]];portConstraint=eastwest;whiteSpace=wrap;html=1;" vertex="1" parent="8lRUZTI_6fAo6i5T4Kmb-14">
          <mxGeometry y="570" width="760" height="160" as="geometry" />
        </mxCell>
        <mxCell id="8lRUZTI_6fAo6i5T4Kmb-51" value="*Bytes = flushSize" style="text;strokeColor=none;fillColor=none;align=left;verticalAlign=top;spacingLeft=4;spacingRight=4;overflow=hidden;rotatable=0;points=[[0,0.5],[1,0.5]];portConstraint=eastwest;whiteSpace=wrap;html=1;" vertex="1" parent="8lRUZTI_6fAo6i5T4Kmb-14">
          <mxGeometry y="730" width="760" height="30" as="geometry" />
        </mxCell>
        <mxCell id="8lRUZTI_6fAo6i5T4Kmb-47" value="}" style="text;strokeColor=#666666;fillColor=#f5f5f5;align=left;verticalAlign=top;spacingLeft=4;spacingRight=4;overflow=hidden;rotatable=0;points=[[0,0.5],[1,0.5]];portConstraint=eastwest;whiteSpace=wrap;html=1;fontColor=#333333;" vertex="1" parent="8lRUZTI_6fAo6i5T4Kmb-14">
          <mxGeometry y="760" width="760" height="30" as="geometry" />
        </mxCell>
        <mxCell id="8lRUZTI_6fAo6i5T4Kmb-19" value="*Bytes = flushSize" style="text;strokeColor=none;fillColor=none;align=left;verticalAlign=top;spacingLeft=4;spacingRight=4;overflow=hidden;rotatable=0;points=[[0,0.5],[1,0.5]];portConstraint=eastwest;whiteSpace=wrap;html=1;" vertex="1" parent="8lRUZTI_6fAo6i5T4Kmb-14">
          <mxGeometry y="790" width="760" height="30" as="geometry" />
        </mxCell>
        <mxCell id="8lRUZTI_6fAo6i5T4Kmb-20" value="Command Queue" style="rounded=0;whiteSpace=wrap;html=1;strokeWidth=3;" vertex="1" parent="1">
          <mxGeometry x="1823.9899999999998" y="200" width="775" height="80" as="geometry" />
        </mxCell>
        <mxCell id="8lRUZTI_6fAo6i5T4Kmb-21" value="offset&amp;nbsp;32" style="rounded=0;whiteSpace=wrap;html=1;strokeWidth=3;verticalAlign=top;" vertex="1" parent="1">
          <mxGeometry x="1750" y="200" width="140" height="80" as="geometry" />
        </mxCell>
        <mxCell id="8lRUZTI_6fAo6i5T4Kmb-25" value="Start&amp;nbsp;&lt;br&gt;&lt;span style=&quot;text-align: left;&quot;&gt;5639 4A98 7800&lt;/span&gt;" style="rounded=0;whiteSpace=wrap;html=1;" vertex="1" parent="1">
          <mxGeometry x="1750" y="160" width="120" height="40" as="geometry" />
        </mxCell>
        <mxCell id="8lRUZTI_6fAo6i5T4Kmb-26" value="LINK&lt;div&gt;16&lt;/div&gt;" style="rounded=0;whiteSpace=wrap;html=1;fillColor=#eeeeee;strokeColor=#36393d;" vertex="1" parent="1">
          <mxGeometry x="1819.4899999999998" y="230" width="70" height="50" as="geometry" />
        </mxCell>
        <mxCell id="8lRUZTI_6fAo6i5T4Kmb-27" value="Wait&lt;div&gt;16&lt;/div&gt;" style="rounded=0;whiteSpace=wrap;html=1;fillColor=#eeeeee;strokeColor=#36393d;" vertex="1" parent="1">
          <mxGeometry x="1750" y="230" width="70" height="50" as="geometry" />
        </mxCell>
        <mxCell id="8lRUZTI_6fAo6i5T4Kmb-28" value="gc_hal_kernel_hardware.c" style="swimlane;fontStyle=1;align=center;verticalAlign=top;childLayout=stackLayout;horizontal=1;startSize=26;horizontalStack=0;resizeParent=1;resizeParentMax=0;resizeLast=0;collapsible=1;marginBottom=0;whiteSpace=wrap;html=1;" vertex="1" parent="1">
          <mxGeometry x="700" y="-180" width="763" height="280" as="geometry" />
        </mxCell>
        <mxCell id="8lRUZTI_6fAo6i5T4Kmb-29" value="&lt;b&gt;gckCOMMAND_Reserve(Command, RequestedBytes, *Buffer, *BufferSize)&lt;/b&gt;" style="text;strokeColor=#666666;fillColor=#f5f5f5;align=left;verticalAlign=top;spacingLeft=4;spacingRight=4;overflow=hidden;rotatable=0;points=[[0,0.5],[1,0.5]];portConstraint=eastwest;whiteSpace=wrap;html=1;fontColor=#333333;" vertex="1" parent="8lRUZTI_6fAo6i5T4Kmb-28">
          <mxGeometry y="26" width="763" height="26" as="geometry" />
        </mxCell>
        <mxCell id="8lRUZTI_6fAo6i5T4Kmb-30" value="" style="line;strokeWidth=1;fillColor=none;align=left;verticalAlign=middle;spacingTop=-1;spacingLeft=3;spacingRight=3;rotatable=0;labelPosition=right;points=[];portConstraint=eastwest;strokeColor=inherit;" vertex="1" parent="8lRUZTI_6fAo6i5T4Kmb-28">
          <mxGeometry y="52" width="763" height="8" as="geometry" />
        </mxCell>
        <mxCell id="8lRUZTI_6fAo6i5T4Kmb-31" value="&lt;div&gt;&lt;font style=&quot;font-size: 16px;&quot;&gt;&lt;b style=&quot;background-color: rgb(255, 255, 204);&quot;&gt;//计算所需Reserved的大小&lt;/b&gt;&lt;/font&gt;&lt;/div&gt;if (Command-&amp;gt;feType == gcvHW_FE_WAIT_LINK) {&lt;div&gt;&amp;nbsp; &amp;nbsp; requestedAligned = ALIGN(RequestedBytes, Command-&amp;gt;alignment)&amp;nbsp; &amp;nbsp; &amp;nbsp; &amp;nbsp; &amp;nbsp; &amp;nbsp; &amp;nbsp; &amp;nbsp; &amp;nbsp; &amp;nbsp; &amp;nbsp; &amp;nbsp; &amp;nbsp; &amp;nbsp; &amp;nbsp; &amp;nbsp; &amp;nbsp; &amp;nbsp; &amp;nbsp; &amp;nbsp; &amp;nbsp; &amp;nbsp; &amp;nbsp; &amp;nbsp; &amp;nbsp; &amp;nbsp; &amp;nbsp; &amp;nbsp; &amp;nbsp; &amp;nbsp; &amp;nbsp; &amp;nbsp; &amp;nbsp;//80, 计算对齐后所需大小&lt;/div&gt;&lt;div&gt;&amp;nbsp; &amp;nbsp; &lt;span style=&quot;background-color: rgb(230, 230, 230);&quot;&gt;//计算新增WAIT/LINK所需大小&lt;/span&gt;&lt;/div&gt;&lt;div&gt;&lt;b&gt;&amp;nbsp; &amp;nbsp; gckWLFE_WaitLink&lt;/b&gt;(hw, NULL, INVALID_ADDRESS, Command-&amp;gt;offset + requestedAligned, &amp;amp;requiredBytes, NULL, NULL)&amp;nbsp; //32&lt;/div&gt;&lt;div&gt;&amp;nbsp; &amp;nbsp; requiredBytes += requestedAligned;&amp;nbsp; &amp;nbsp; &amp;nbsp; &amp;nbsp; &amp;nbsp; &amp;nbsp; &amp;nbsp; &amp;nbsp; &amp;nbsp; &amp;nbsp; &amp;nbsp; &amp;nbsp; &amp;nbsp; &amp;nbsp; &amp;nbsp; &amp;nbsp; &amp;nbsp; &amp;nbsp; &amp;nbsp; &amp;nbsp; &amp;nbsp; &amp;nbsp; &amp;nbsp; &amp;nbsp; &amp;nbsp; &amp;nbsp; &amp;nbsp; &amp;nbsp; &amp;nbsp; &amp;nbsp; &amp;nbsp; &amp;nbsp; &amp;nbsp; &amp;nbsp; &amp;nbsp; &amp;nbsp; &amp;nbsp; &amp;nbsp; &amp;nbsp; &amp;nbsp; &amp;nbsp; &amp;nbsp; &amp;nbsp; &amp;nbsp; &amp;nbsp; &amp;nbsp; &amp;nbsp; &amp;nbsp; &amp;nbsp; &amp;nbsp; &amp;nbsp; &amp;nbsp; &amp;nbsp; &amp;nbsp; &amp;nbsp; &amp;nbsp; &amp;nbsp; &amp;nbsp; //112&lt;/div&gt;&lt;div&gt;}&lt;/div&gt;" style="text;strokeColor=default;fillColor=none;align=left;verticalAlign=top;spacingLeft=4;spacingRight=4;overflow=hidden;rotatable=0;points=[[0,0.5],[1,0.5]];portConstraint=eastwest;whiteSpace=wrap;html=1;dashed=1;" vertex="1" parent="8lRUZTI_6fAo6i5T4Kmb-28">
          <mxGeometry y="60" width="763" height="120" as="geometry" />
        </mxCell>
        <mxCell id="8lRUZTI_6fAo6i5T4Kmb-35" value="&lt;div&gt;&lt;span style=&quot;background-color: rgb(255, 255, 204);&quot;&gt;&lt;font style=&quot;font-size: 16px;&quot;&gt;&lt;b&gt;//计算Command Queue 剩余空间, 看是否需要切换 command queue&lt;/b&gt;&lt;/font&gt;&lt;/span&gt;&lt;/div&gt;bytes = Command-&amp;gt;pageSize - Command-&amp;gt;offset&lt;br&gt;&lt;span style=&quot;background-color: rgb(255, 153, 153);&quot;&gt;if (bytes &amp;lt;=requiredBytes) { .... } //切换QUEUE&lt;/span&gt;" style="text;strokeColor=default;fillColor=none;align=left;verticalAlign=top;spacingLeft=4;spacingRight=4;overflow=hidden;rotatable=0;points=[[0,0.5],[1,0.5]];portConstraint=eastwest;whiteSpace=wrap;html=1;dashed=1;" vertex="1" parent="8lRUZTI_6fAo6i5T4Kmb-28">
          <mxGeometry y="180" width="763" height="60" as="geometry" />
        </mxCell>
        <mxCell id="8lRUZTI_6fAo6i5T4Kmb-36" value="*Buffer = Command-&amp;gt;logical + Command-&amp;gt;offset&amp;nbsp; &amp;nbsp; &amp;nbsp; &amp;nbsp; &amp;nbsp; &amp;nbsp; &amp;nbsp; &amp;nbsp; &amp;nbsp; &amp;nbsp; &amp;nbsp; &amp;nbsp; &amp;nbsp; &amp;nbsp; &amp;nbsp; &amp;nbsp; &amp;nbsp; &amp;nbsp; &amp;nbsp; &amp;nbsp; &amp;nbsp; &amp;nbsp; &amp;nbsp; &amp;nbsp; &amp;nbsp; &amp;nbsp; &amp;nbsp; &amp;nbsp; &amp;nbsp; &amp;nbsp; &amp;nbsp; &amp;nbsp; &amp;nbsp;// 5639 4A98 7820 = 5639 4A98 7800 + 32&lt;div&gt;*BufferSize = bytes&amp;nbsp; &amp;nbsp; &amp;nbsp; &amp;nbsp; &amp;nbsp; &amp;nbsp; &amp;nbsp; &amp;nbsp; &amp;nbsp; &amp;nbsp; &amp;nbsp; &amp;nbsp; &amp;nbsp; &amp;nbsp; &amp;nbsp; &amp;nbsp; &amp;nbsp; &amp;nbsp; &amp;nbsp; &amp;nbsp; &amp;nbsp; &amp;nbsp; &amp;nbsp; &amp;nbsp; &amp;nbsp; &amp;nbsp; &amp;nbsp; &amp;nbsp; &amp;nbsp; &amp;nbsp; &amp;nbsp; &amp;nbsp; &amp;nbsp; &amp;nbsp; &amp;nbsp; &amp;nbsp; &amp;nbsp; &amp;nbsp; &amp;nbsp; &amp;nbsp; &amp;nbsp; &amp;nbsp; &amp;nbsp; &amp;nbsp; &amp;nbsp; &amp;nbsp; &amp;nbsp; &amp;nbsp; &amp;nbsp; &amp;nbsp; &amp;nbsp; &amp;nbsp; &amp;nbsp; &amp;nbsp; &amp;nbsp; &amp;nbsp; // 4064&lt;/div&gt;" style="text;strokeColor=default;fillColor=none;align=left;verticalAlign=top;spacingLeft=4;spacingRight=4;overflow=hidden;rotatable=0;points=[[0,0.5],[1,0.5]];portConstraint=eastwest;whiteSpace=wrap;html=1;dashed=1;" vertex="1" parent="8lRUZTI_6fAo6i5T4Kmb-28">
          <mxGeometry y="240" width="763" height="40" as="geometry" />
        </mxCell>
        <mxCell id="8lRUZTI_6fAo6i5T4Kmb-32" value="dispatch" style="html=1;verticalAlign=bottom;endArrow=block;curved=0;rounded=0;entryX=0;entryY=0;entryDx=0;entryDy=0;exitX=1;exitY=0.5;exitDx=0;exitDy=0;" edge="1" parent="1" source="8lRUZTI_6fAo6i5T4Kmb-8" target="8lRUZTI_6fAo6i5T4Kmb-14">
          <mxGeometry width="80" relative="1" as="geometry">
            <mxPoint x="830" y="60" as="sourcePoint" />
            <mxPoint x="910" y="60" as="targetPoint" />
          </mxGeometry>
        </mxCell>
        <mxCell id="8lRUZTI_6fAo6i5T4Kmb-33" value="dispatch" style="html=1;verticalAlign=bottom;endArrow=block;curved=0;rounded=0;entryX=0;entryY=0;entryDx=0;entryDy=0;exitX=1;exitY=0.5;exitDx=0;exitDy=0;" edge="1" parent="1" source="8lRUZTI_6fAo6i5T4Kmb-6" target="8lRUZTI_6fAo6i5T4Kmb-28">
          <mxGeometry width="80" relative="1" as="geometry">
            <mxPoint x="800" y="290" as="sourcePoint" />
            <mxPoint x="1010" y="-380" as="targetPoint" />
          </mxGeometry>
        </mxCell>
        <mxCell id="8lRUZTI_6fAo6i5T4Kmb-37" value="" style="endArrow=classic;html=1;rounded=0;exitX=0.5;exitY=1;exitDx=0;exitDy=0;entryX=0.5;entryY=1;entryDx=0;entryDy=0;strokeWidth=5;fillColor=#60a917;strokeColor=#000000;" edge="1" parent="1" source="8lRUZTI_6fAo6i5T4Kmb-26" target="8lRUZTI_6fAo6i5T4Kmb-27">
          <mxGeometry width="50" height="50" relative="1" as="geometry">
            <mxPoint x="1895" y="430" as="sourcePoint" />
            <mxPoint x="1760" y="430" as="targetPoint" />
            <Array as="points">
              <mxPoint x="1854" y="310" />
              <mxPoint x="1785" y="310" />
            </Array>
          </mxGeometry>
        </mxCell>
        <mxCell id="8lRUZTI_6fAo6i5T4Kmb-38" value="Command Queue" style="rounded=0;whiteSpace=wrap;html=1;strokeWidth=3;verticalAlign=top;" vertex="1" parent="1">
          <mxGeometry x="1823.9899999999998" y="400" width="775" height="80" as="geometry" />
        </mxCell>
        <mxCell id="8lRUZTI_6fAo6i5T4Kmb-39" value="offset&amp;nbsp;32" style="rounded=0;whiteSpace=wrap;html=1;strokeWidth=3;verticalAlign=top;" vertex="1" parent="1">
          <mxGeometry x="1750" y="400" width="140" height="80" as="geometry" />
        </mxCell>
        <mxCell id="8lRUZTI_6fAo6i5T4Kmb-40" value="Start&amp;nbsp;&lt;br&gt;&lt;span style=&quot;text-align: left;&quot;&gt;5639 4A98 7800&lt;/span&gt;" style="rounded=0;whiteSpace=wrap;html=1;" vertex="1" parent="1">
          <mxGeometry x="1750" y="360" width="120" height="40" as="geometry" />
        </mxCell>
        <mxCell id="8lRUZTI_6fAo6i5T4Kmb-41" value="LINK&lt;div&gt;16&lt;/div&gt;" style="rounded=0;whiteSpace=wrap;html=1;fillColor=#eeeeee;strokeColor=#36393d;" vertex="1" parent="1">
          <mxGeometry x="1819.4899999999998" y="430" width="70" height="50" as="geometry" />
        </mxCell>
        <mxCell id="8lRUZTI_6fAo6i5T4Kmb-42" value="Wait&lt;div&gt;16&lt;/div&gt;" style="rounded=0;whiteSpace=wrap;html=1;fillColor=#eeeeee;strokeColor=#36393d;" vertex="1" parent="1">
          <mxGeometry x="1750" y="430" width="70" height="50" as="geometry" />
        </mxCell>
        <mxCell id="8lRUZTI_6fAo6i5T4Kmb-43" value="" style="endArrow=classic;html=1;rounded=0;exitX=0.5;exitY=1;exitDx=0;exitDy=0;entryX=0.5;entryY=1;entryDx=0;entryDy=0;strokeWidth=5;fillColor=#60a917;strokeColor=#000000;" edge="1" parent="1" source="8lRUZTI_6fAo6i5T4Kmb-41" target="8lRUZTI_6fAo6i5T4Kmb-42">
          <mxGeometry width="50" height="50" relative="1" as="geometry">
            <mxPoint x="1895" y="630" as="sourcePoint" />
            <mxPoint x="1760" y="630" as="targetPoint" />
            <Array as="points">
              <mxPoint x="1854" y="510" />
              <mxPoint x="1785" y="510" />
            </Array>
          </mxGeometry>
        </mxCell>
        <mxCell id="8lRUZTI_6fAo6i5T4Kmb-46" value="dispatch" style="html=1;verticalAlign=bottom;endArrow=block;curved=0;rounded=0;entryX=0;entryY=0;entryDx=0;entryDy=0;exitX=1;exitY=0.5;exitDx=0;exitDy=0;" edge="1" parent="1" source="8lRUZTI_6fAo6i5T4Kmb-11" target="8lRUZTI_6fAo6i5T4Kmb-14">
          <mxGeometry width="80" relative="1" as="geometry">
            <mxPoint x="590" y="170" as="sourcePoint" />
            <mxPoint x="730" y="230" as="targetPoint" />
          </mxGeometry>
        </mxCell>
        <mxCell id="8lRUZTI_6fAo6i5T4Kmb-52" value="LINK&lt;div&gt;16&lt;/div&gt;" style="rounded=0;whiteSpace=wrap;html=1;fillColor=#60a917;strokeColor=#2D7600;fontColor=#ffffff;" vertex="1" parent="1">
          <mxGeometry x="1889.9999999999998" y="430" width="70" height="50" as="geometry" />
        </mxCell>
        <mxCell id="8lRUZTI_6fAo6i5T4Kmb-54" value="" style="endArrow=classic;html=1;rounded=0;exitX=0.5;exitY=1;exitDx=0;exitDy=0;entryX=0.176;entryY=0.974;entryDx=0;entryDy=0;strokeWidth=5;fillColor=#60a917;strokeColor=#2D7600;entryPerimeter=0;" edge="1" parent="1" source="8lRUZTI_6fAo6i5T4Kmb-52" target="8lRUZTI_6fAo6i5T4Kmb-38">
          <mxGeometry width="50" height="50" relative="1" as="geometry">
            <mxPoint x="1999" y="510" as="sourcePoint" />
            <mxPoint x="1930" y="510" as="targetPoint" />
            <Array as="points">
              <mxPoint x="1925" y="510" />
              <mxPoint x="1960" y="510" />
            </Array>
          </mxGeometry>
        </mxCell>
        <mxCell id="8lRUZTI_6fAo6i5T4Kmb-34" value="建立LINK" style="html=1;verticalAlign=bottom;endArrow=block;curved=0;rounded=0;entryX=0;entryY=0;entryDx=0;entryDy=0;exitX=1;exitY=0.5;exitDx=0;exitDy=0;" edge="1" parent="1" source="8lRUZTI_6fAo6i5T4Kmb-48" target="8lRUZTI_6fAo6i5T4Kmb-39">
          <mxGeometry width="80" relative="1" as="geometry">
            <mxPoint x="940" y="390" as="sourcePoint" />
            <mxPoint x="1290" y="250" as="targetPoint" />
          </mxGeometry>
        </mxCell>
        <mxCell id="8lRUZTI_6fAo6i5T4Kmb-56" value="Command Queue" style="rounded=0;whiteSpace=wrap;html=1;strokeWidth=3;align=center;verticalAlign=top;" vertex="1" parent="1">
          <mxGeometry x="1823.9899999999998" y="580" width="775" height="80" as="geometry" />
        </mxCell>
        <mxCell id="8lRUZTI_6fAo6i5T4Kmb-57" value="offset&amp;nbsp;32" style="rounded=0;whiteSpace=wrap;html=1;strokeWidth=3;verticalAlign=top;" vertex="1" parent="1">
          <mxGeometry x="1750" y="580" width="140" height="80" as="geometry" />
        </mxCell>
        <mxCell id="8lRUZTI_6fAo6i5T4Kmb-58" value="Start&amp;nbsp;&lt;br&gt;&lt;span style=&quot;text-align: left;&quot;&gt;5639 4A98 7800&lt;/span&gt;" style="rounded=0;whiteSpace=wrap;html=1;" vertex="1" parent="1">
          <mxGeometry x="1750" y="540" width="120" height="40" as="geometry" />
        </mxCell>
        <mxCell id="8lRUZTI_6fAo6i5T4Kmb-59" value="LINK&lt;div&gt;16&lt;/div&gt;" style="rounded=0;whiteSpace=wrap;html=1;fillColor=#eeeeee;strokeColor=#36393d;" vertex="1" parent="1">
          <mxGeometry x="1819.4899999999998" y="610" width="70" height="50" as="geometry" />
        </mxCell>
        <mxCell id="8lRUZTI_6fAo6i5T4Kmb-60" value="Wait&lt;div&gt;16&lt;/div&gt;" style="rounded=0;whiteSpace=wrap;html=1;fillColor=#eeeeee;strokeColor=#36393d;" vertex="1" parent="1">
          <mxGeometry x="1750" y="610" width="70" height="50" as="geometry" />
        </mxCell>
        <mxCell id="8lRUZTI_6fAo6i5T4Kmb-61" value="" style="endArrow=classic;html=1;rounded=0;exitX=0.5;exitY=1;exitDx=0;exitDy=0;entryX=0.5;entryY=1;entryDx=0;entryDy=0;strokeWidth=5;fillColor=#60a917;strokeColor=#000000;" edge="1" parent="1" source="8lRUZTI_6fAo6i5T4Kmb-59" target="8lRUZTI_6fAo6i5T4Kmb-60">
          <mxGeometry width="50" height="50" relative="1" as="geometry">
            <mxPoint x="1895" y="810" as="sourcePoint" />
            <mxPoint x="1760" y="810" as="targetPoint" />
            <Array as="points">
              <mxPoint x="1854" y="690" />
              <mxPoint x="1785" y="690" />
            </Array>
          </mxGeometry>
        </mxCell>
        <mxCell id="8lRUZTI_6fAo6i5T4Kmb-62" value="LINK&lt;div&gt;16&lt;/div&gt;" style="rounded=0;whiteSpace=wrap;html=1;fillColor=#eeeeee;strokeColor=#36393d;" vertex="1" parent="1">
          <mxGeometry x="1889.9999999999998" y="610" width="70" height="50" as="geometry" />
        </mxCell>
        <mxCell id="8lRUZTI_6fAo6i5T4Kmb-63" value="" style="endArrow=classic;html=1;rounded=0;exitX=0.5;exitY=1;exitDx=0;exitDy=0;entryX=0.176;entryY=0.974;entryDx=0;entryDy=0;strokeWidth=5;fillColor=#60a917;strokeColor=#000000;entryPerimeter=0;" edge="1" parent="1" source="8lRUZTI_6fAo6i5T4Kmb-62" target="8lRUZTI_6fAo6i5T4Kmb-56">
          <mxGeometry width="50" height="50" relative="1" as="geometry">
            <mxPoint x="1999" y="690" as="sourcePoint" />
            <mxPoint x="1930" y="690" as="targetPoint" />
            <Array as="points">
              <mxPoint x="1925" y="690" />
              <mxPoint x="1960" y="690" />
            </Array>
          </mxGeometry>
        </mxCell>
        <mxCell id="8lRUZTI_6fAo6i5T4Kmb-64" value="FLUSH&lt;br&gt;VMID&lt;br&gt;8" style="rounded=0;whiteSpace=wrap;html=1;fillColor=#60a917;strokeColor=#2D7600;fontColor=#ffffff;" vertex="1" parent="1">
          <mxGeometry x="1959.9999999999998" y="610" width="70" height="50" as="geometry" />
        </mxCell>
        <mxCell id="8lRUZTI_6fAo6i5T4Kmb-65" value="FLUSH VMID" style="html=1;verticalAlign=bottom;endArrow=block;curved=0;rounded=0;entryX=0;entryY=1;entryDx=0;entryDy=0;exitX=1;exitY=0.5;exitDx=0;exitDy=0;" edge="1" parent="1" source="8lRUZTI_6fAo6i5T4Kmb-49" target="8lRUZTI_6fAo6i5T4Kmb-58">
          <mxGeometry width="80" relative="1" as="geometry">
            <mxPoint x="1470" y="520" as="sourcePoint" />
            <mxPoint x="1760" y="410" as="targetPoint" />
          </mxGeometry>
        </mxCell>
        <mxCell id="8lRUZTI_6fAo6i5T4Kmb-66" value="Command Queue" style="rounded=0;whiteSpace=wrap;html=1;strokeWidth=3;horizontal=1;verticalAlign=top;" vertex="1" parent="1">
          <mxGeometry x="1823.9899999999998" y="760" width="775" height="80" as="geometry" />
        </mxCell>
        <mxCell id="8lRUZTI_6fAo6i5T4Kmb-67" value="offset&amp;nbsp;32" style="rounded=0;whiteSpace=wrap;html=1;strokeWidth=3;verticalAlign=top;" vertex="1" parent="1">
          <mxGeometry x="1750" y="760" width="140" height="80" as="geometry" />
        </mxCell>
        <mxCell id="8lRUZTI_6fAo6i5T4Kmb-68" value="Start&amp;nbsp;&lt;br&gt;&lt;span style=&quot;text-align: left;&quot;&gt;5639 4A98 7800&lt;/span&gt;" style="rounded=0;whiteSpace=wrap;html=1;" vertex="1" parent="1">
          <mxGeometry x="1750" y="720" width="120" height="40" as="geometry" />
        </mxCell>
        <mxCell id="8lRUZTI_6fAo6i5T4Kmb-69" value="LINK&lt;div&gt;16&lt;/div&gt;" style="rounded=0;whiteSpace=wrap;html=1;fillColor=#eeeeee;strokeColor=#36393d;" vertex="1" parent="1">
          <mxGeometry x="1819.4899999999998" y="790" width="70" height="50" as="geometry" />
        </mxCell>
        <mxCell id="8lRUZTI_6fAo6i5T4Kmb-70" value="Wait&lt;div&gt;16&lt;/div&gt;" style="rounded=0;whiteSpace=wrap;html=1;fillColor=#eeeeee;strokeColor=#36393d;" vertex="1" parent="1">
          <mxGeometry x="1750" y="790" width="70" height="50" as="geometry" />
        </mxCell>
        <mxCell id="8lRUZTI_6fAo6i5T4Kmb-71" value="" style="endArrow=classic;html=1;rounded=0;exitX=0.5;exitY=1;exitDx=0;exitDy=0;entryX=0.5;entryY=1;entryDx=0;entryDy=0;strokeWidth=5;fillColor=#60a917;strokeColor=#000000;" edge="1" parent="1" source="8lRUZTI_6fAo6i5T4Kmb-69" target="8lRUZTI_6fAo6i5T4Kmb-70">
          <mxGeometry width="50" height="50" relative="1" as="geometry">
            <mxPoint x="1895" y="990" as="sourcePoint" />
            <mxPoint x="1760" y="990" as="targetPoint" />
            <Array as="points">
              <mxPoint x="1854" y="870" />
              <mxPoint x="1785" y="870" />
            </Array>
          </mxGeometry>
        </mxCell>
        <mxCell id="8lRUZTI_6fAo6i5T4Kmb-72" value="LINK&lt;div&gt;16&lt;/div&gt;" style="rounded=0;whiteSpace=wrap;html=1;fillColor=#eeeeee;strokeColor=#36393d;" vertex="1" parent="1">
          <mxGeometry x="1889.9999999999998" y="790" width="70" height="50" as="geometry" />
        </mxCell>
        <mxCell id="8lRUZTI_6fAo6i5T4Kmb-73" value="" style="endArrow=classic;html=1;rounded=0;exitX=0.5;exitY=1;exitDx=0;exitDy=0;entryX=0.176;entryY=0.974;entryDx=0;entryDy=0;strokeWidth=5;fillColor=#60a917;strokeColor=#000000;entryPerimeter=0;" edge="1" parent="1" source="8lRUZTI_6fAo6i5T4Kmb-72" target="8lRUZTI_6fAo6i5T4Kmb-66">
          <mxGeometry width="50" height="50" relative="1" as="geometry">
            <mxPoint x="1999" y="870" as="sourcePoint" />
            <mxPoint x="1930" y="870" as="targetPoint" />
            <Array as="points">
              <mxPoint x="1925" y="870" />
              <mxPoint x="1960" y="870" />
            </Array>
          </mxGeometry>
        </mxCell>
        <mxCell id="8lRUZTI_6fAo6i5T4Kmb-74" value="FLUSH&lt;br&gt;VMID&lt;br&gt;8" style="rounded=0;whiteSpace=wrap;html=1;fillColor=#eeeeee;strokeColor=#36393d;" vertex="1" parent="1">
          <mxGeometry x="1959.9999999999998" y="790" width="70" height="50" as="geometry" />
        </mxCell>
        <mxCell id="8lRUZTI_6fAo6i5T4Kmb-75" value="FLUSH VMID" style="html=1;verticalAlign=bottom;endArrow=block;curved=0;rounded=0;entryX=0;entryY=1;entryDx=0;entryDy=0;exitX=1;exitY=0.5;exitDx=0;exitDy=0;" edge="1" parent="1" source="8lRUZTI_6fAo6i5T4Kmb-50" target="8lRUZTI_6fAo6i5T4Kmb-68">
          <mxGeometry width="80" relative="1" as="geometry">
            <mxPoint x="1470" y="695" as="sourcePoint" />
            <mxPoint x="1760" y="590" as="targetPoint" />
          </mxGeometry>
        </mxCell>
        <mxCell id="8lRUZTI_6fAo6i5T4Kmb-76" value="LOCK BLT STREAM&lt;br&gt;8" style="rounded=0;whiteSpace=wrap;html=1;fillColor=#60a917;strokeColor=#2D7600;fontColor=#ffffff;" vertex="1" parent="1">
          <mxGeometry x="2030" y="790" width="70" height="50" as="geometry" />
        </mxCell>
        <mxCell id="8lRUZTI_6fAo6i5T4Kmb-77" value="ENABLE BLT CLUSTER&lt;div&gt;8&lt;/div&gt;" style="rounded=0;whiteSpace=wrap;html=1;fillColor=#60a917;strokeColor=#2D7600;fontColor=#ffffff;" vertex="1" parent="1">
          <mxGeometry x="2100" y="790" width="80" height="50" as="geometry" />
        </mxCell>
      </root>
    </mxGraphModel>
  </diagram>
</mxfile>
